<?xml version="1.0" encoding="UTF-8"?><svg id="Layer_1" xmlns="http://www.w3.org/2000/svg" width="1920" height="1080" viewBox="0 0 1920 1080"><defs><style>.cls-1{stroke-width:0px;}</style></defs><path class="cls-1" d="m1779.35,4.57c-7.26,40.54,3.65,81.18.11,121.85-3.05,34.91-17.87,69.85-52.89,82.76-32.85,12.1-69.11,5.54-102.97,12.43-34.97,7.12-63.82,29.95-87.09,56.03-21.82,24.46-45.35,57.15-41.68,91.83,3.22,30.5,29.02,48.97,57.93,52.18,34.67,3.85,65.46-13.78,92.63-33.3,15.12-10.86,29.84-24.64,46.99-32.22,17.55-7.76,33.99-1.49,44.08,14.14,8.63,13.36,12.31,29.19,15.47,44.56,4.42,21.55,8.25,44.29,2.15,65.91-8.93,31.62-36.61,52.24-64.57,66.57-14.89,7.63-30.43,13.82-46.05,19.78-20.03,7.64-40.13,15.15-60.67,21.31-20.18,6.05-40.84,10.82-61.86,12.75s-39.93,0-60.05-2.39c-16.96-2.02-35.17-3.8-51.5,2.47-13.08,5.03-23.12,14.89-28.26,27.93-11.05,28,.62,59.32,23.07,77.79,27.38,22.53,65.69,29,100.18,28.76,20.67-.14,41.34-3.1,61.22-8.79,20.72-5.94,41.01-13.79,61.85-3.63,30.18,14.72,45.47,49.4,44.26,81.77-.59,15.64-4.85,31.24-12.94,44.68-9.45,15.69-23.99,26.7-39.72,35.62s-33.06,16.33-48.67,26.2c-14.55,9.2-28.15,19.99-40.3,32.18-23.07,23.16-42.16,52.5-47.01,85.35-2.26,15.34-1.09,30.83,3.4,45.66.56,1.84,3.45,1.06,2.89-.8-21.51-71.16,39.22-137.48,97.49-168.5,30.16-16.06,63.51-29.46,78.84-62.36,12-25.75,12.12-56.79.44-82.67-6.18-13.7-15.85-25.78-28.19-34.42-15.33-10.73-32.41-12.99-50.41-8.63-9.96,2.41-19.61,5.97-29.55,8.48-10.97,2.77-22.15,4.72-33.42,5.8-20.65,1.99-41.75,1.27-62.14-2.66-33.13-6.37-69.84-23.89-79.8-58.94-4.19-14.76-3.59-31.57,3.81-45.24,8.74-16.15,25.68-23.63,43.42-24.72s36.38,2.82,54.51,4.32c20.22,1.68,40.57.05,60.49-3.61,39.79-7.32,78.36-22.08,115.76-37.2,27.92-11.29,56.95-24.96,77.27-47.9,9.81-11.08,17.08-24.29,20.27-38.8,4.35-19.81,1.23-40.28-2.7-59.89-4.81-23.99-12.66-62.01-41.9-67.04-17.85-3.07-33.54,9.21-47.02,19.1-15.05,11.04-29.8,22.61-45.92,32.08-28.6,16.79-65.01,26.11-95.76,8.82-15.03-8.45-25.14-23.29-26.99-40.52-2-18.57,4.85-37.08,13.8-53.03,9.12-16.26,21.14-30.86,34.03-44.27,12.73-13.25,26.92-25.27,43-34.27s33.48-13.91,51.77-15.79c17.53-1.8,35.19-1.55,52.74-3.13,15.91-1.44,32-4.45,46.08-12.33s24.15-19.47,31.07-33.38c16.06-32.31,13.24-69.03,10.77-103.86-1.51-21.35-2.62-42.84,1.17-64.03.34-1.89-2.55-2.7-2.89-.8h0Z"/><path class="cls-1" d="m862.92,7.53c-4.91,39.34,25.21,71.5,53.72,94.04,29.36,23.22,64.73,42.35,83.44,76.22,4.36,7.89,7.48,16.43,8.95,25.33,1.66,10.05.98,20.34-.5,30.36-2.86,19.34-9.08,38.65-8.24,58.38.73,17.13,8.5,33.47,23.77,42.13,13.73,7.79,30.56,8.56,45.72,5.25,38.97-8.5,60.93-44.56,81.49-75.43,20.94-31.44,50.68-68.92,92.94-65.57,18.04,1.43,34.47,10.27,49.98,18.93s30.86,18,48.16,22.13c15.6,3.73,31.53,2.27,45.34-6.21,12.75-7.84,22.47-20.17,28.04-33.98s6.91-29.54,1.92-43.66c-6.34-17.94-21.91-30.58-37.43-40.51-17.18-10.99-36.16-19.72-50.77-34.28-12.88-12.84-20.81-30.65-16.18-48.94,2-7.89,6.48-14.88,13.42-19.26,1.63-1.03.12-3.63-1.51-2.59-13.69,8.64-17.95,25.62-15.51,40.88,2.95,18.49,16.29,32.56,30.93,43.17,28.45,20.63,74.64,35.43,77.05,76.76,1.74,29.92-20.16,62.1-50.6,67.07-17.24,2.82-34.57-3.68-49.7-11.34s-30.78-17.94-47.29-24.65c-16.65-6.77-34.48-9-51.82-3.39-18.24,5.9-33.61,18.57-46.22,32.66-26.63,29.76-41.83,70.15-75.47,93.47-25.53,17.7-70.23,21.54-87.31-9.77-9.5-17.42-5.79-38.2-2.18-56.7s8.25-38.35,4.53-57.64c-7.03-36.51-39.04-61.71-67.43-82.33-15.7-11.41-31.53-22.47-45.37-36.18-13.46-13.33-25.64-29.12-30.85-47.61-2.46-8.73-3.13-17.76-2-26.75.24-1.91-2.76-1.89-3,0h0Z"/><path class="cls-1" d="m1.78,205.16c61.11-19.08,126.39-39.19,191.05-28.56,27.73,4.56,56.27,14.62,76.65,34.7,18.56,18.29,28.32,46.05,19.65,71.46-8.94,26.22-35.57,35.6-60.27,41.05-12.32,2.71-24.94,4.58-36.88,8.74-10.82,3.77-21.29,9.08-30.01,16.58-8.22,7.06-14.74,16.43-16.34,27.33-1.59,10.85,1.67,21.54,8.36,30.13,15.85,20.34,43.39,26.9,67.79,28.75,59.64,4.54,118.68-17.77,178.13-5.66,23.42,4.77,46.5,14.65,62.85,32.6,9.28,10.19,16.82,23.17,17.87,37.16,1.15,15.28-7.02,27.53-18.98,36.28-40.08,29.3-93.48,15.51-138.34,8.34-23.65-3.78-47.89-6.97-71.81-3.84-22.9,2.99-44.09,12.51-60.93,28.4-34.84,32.87-47.73,83.34-51.48,129.51-1.19,14.61-2.12,29.95-8.76,43.31-5.65,11.37-15.35,19.82-26.96,24.78-25.87,11.06-54.2,4.44-78.1-8.31-12.83-6.84-24.75-15.23-36.51-23.73-1.57-1.13-3.07,1.47-1.51,2.59,23.54,17.02,49.3,34.84,79.05,37.74,23.42,2.28,49.72-5.4,63.29-25.78,7.81-11.73,10.21-25.95,11.56-39.71s2.14-26.14,4.41-39.11c4.27-24.4,11.78-48.62,24.35-70.08,12.02-20.53,29.05-38.16,50.92-48.07,22.44-10.17,47.6-10.98,71.76-8.76s49.84,7.78,74.84,11.06c22.78,2.99,46.63,4.37,68.9-2.43,22.95-7.01,48.83-24.35,47.37-51.23-1.38-25.36-21.28-46.84-42.34-58.86-21.12-12.05-45.68-17.09-69.76-18.37-30.59-1.63-60.97,3.72-91.27,7.07-16.46,1.82-33.02,3.14-49.59,2.6-15.09-.49-30.55-2.25-44.74-7.65-21.69-8.26-44.31-28.07-36.13-53.75,3.63-11.4,12.81-20.13,22.69-26.36,10.57-6.66,22.37-10.88,34.51-13.59,24.1-5.39,51.58-8.18,70.56-25.69s21.64-45.6,12.73-68.65c-9.67-25-32.4-42.13-56.46-52.17-59.54-24.85-126.94-13.08-186.93,3.57-15.41,4.28-30.7,8.98-45.97,13.75-1.84.57-1.05,3.47.8,2.89h0Z"/></svg>